<?xml version="1.0" encoding="UTF-8"?>
<!DOCTYPE svg PUBLIC "-//W3C//DTD SVG 1.1//EN" "http://www.w3.org/Graphics/SVG/1.1/DTD/svg11.dtd">
<svg xmlns="http://www.w3.org/2000/svg" version="1.1" width="2000px" height="1500px" style="shape-rendering:geometricPrecision; text-rendering:geometricPrecision; image-rendering:optimizeQuality; fill-rule:evenodd; clip-rule:evenodd" xmlns:xlink="http://www.w3.org/1999/xlink">
<g><path style="opacity:1" fill="#fefefe" d="M -0.5,-0.5 C 666.167,-0.5 1332.83,-0.5 1999.5,-0.5C 1999.5,499.5 1999.5,999.5 1999.5,1499.5C 1332.83,1499.5 666.167,1499.5 -0.5,1499.5C -0.5,999.5 -0.5,499.5 -0.5,-0.5 Z"/></g>
<g><path style="opacity:1" fill="#d06e49" d="M 1055.5,305.5 C 1062.84,304.768 1069.84,305.934 1076.5,309C 1089.5,316.5 1102.17,324.5 1114.5,333C 1121.6,336.881 1128.93,340.215 1136.5,343C 1153.79,344.262 1171.12,344.929 1188.5,345C 1197.72,345.529 1205.22,349.362 1211,356.5C 1219.67,367.167 1228.33,377.833 1237,388.5C 1245.9,399.073 1256.73,406.907 1269.5,412C 1280.91,415.469 1292.24,419.135 1303.5,423C 1313.26,426.636 1319.76,433.469 1323,443.5C 1327.67,455.5 1332.33,467.5 1337,479.5C 1341.79,492.585 1349.62,503.418 1360.5,512C 1369.5,518.333 1378.5,524.667 1387.5,531C 1395.23,536.63 1399.73,544.13 1401,553.5C 1402.61,569.127 1403.61,584.794 1404,600.5C 1405.18,611.047 1408.18,621.047 1413,630.5C 1420.33,640.5 1427.67,650.5 1435,660.5C 1437.86,664.888 1440.19,669.554 1442,674.5C 1442.33,679.854 1442,685.187 1441,690.5C 1437.59,704.897 1433.92,719.23 1430,733.5C 1428.49,742.447 1428.15,751.447 1429,760.5C 1433.47,776.242 1438.14,791.909 1443,807.5C 1443.67,810.833 1443.67,814.167 1443,817.5C 1441.33,821.5 1439.67,825.5 1438,829.5C 1430,842.167 1422,854.833 1414,867.5C 1408.97,876.233 1405.63,885.566 1404,895.5C 1403.67,911.167 1403.33,926.833 1403,942.5C 1401.36,950.819 1397.2,957.652 1390.5,963C 1380.17,971.333 1369.83,979.667 1359.5,988C 1350.27,995.977 1343.1,1005.48 1338,1016.5C 1334.14,1027.76 1330.47,1039.09 1327,1050.5C 1325.19,1055.45 1322.86,1060.11 1320,1064.5C 1314.24,1068.63 1308.07,1072.13 1301.5,1075C 1290.17,1079.33 1278.83,1083.67 1267.5,1088C 1254.87,1093.06 1244.37,1100.89 1236,1111.5C 1228.16,1124.33 1219,1136.16 1208.5,1147C 1202.13,1149.73 1195.46,1151.4 1188.5,1152C 1173.49,1152.9 1158.49,1153.9 1143.5,1155C 1130.51,1156.99 1118.85,1161.99 1108.5,1170C 1098.36,1178.57 1087.36,1185.91 1075.5,1192C 1068.12,1192.75 1060.79,1192.41 1053.5,1191C 1034.98,1184.79 1015.98,1180.62 996.5,1178.5C 991.082,1178.79 985.748,1179.63 980.5,1181C 967.956,1185.4 955.289,1189.4 942.5,1193C 937.833,1193.67 933.167,1193.67 928.5,1193C 912.704,1185.27 897.704,1176.27 883.5,1166C 873.978,1159.94 863.645,1156.27 852.5,1155C 837.5,1154.67 822.5,1154.33 807.5,1154C 804.471,1153.46 801.471,1152.79 798.5,1152C 784.831,1139.81 772.664,1126.31 762,1111.5C 753.518,1100.85 743.018,1093.02 730.5,1088C 720.833,1085 711.167,1082 701.5,1079C 695.221,1076.53 689.221,1073.53 683.5,1070C 673.93,1052.96 666.096,1035.13 660,1016.5C 655.434,1006.53 649.268,997.697 641.5,990C 632.675,983.421 623.675,977.087 614.5,971C 609,966.833 604.167,962 600,956.5C 598.615,951.239 597.615,945.906 597,940.5C 595.822,922.104 594.155,903.771 592,885.5C 590.448,879.511 588.115,873.844 585,868.5C 577.667,858.5 570.333,848.5 563,838.5C 559.901,833.875 557.568,828.875 556,823.5C 555.333,819.833 555.333,816.167 556,812.5C 558.89,797.938 562.557,783.605 567,769.5C 570.265,755.82 570.265,742.154 567,728.5C 563.268,718.637 559.934,708.637 557,698.5C 555.454,692.567 554.787,686.567 555,680.5C 563.061,664.039 572.395,648.373 583,633.5C 588.449,624.153 592.116,614.153 594,603.5C 594.333,587.5 594.667,571.5 595,555.5C 595.511,553.122 596.178,550.788 597,548.5C 608.922,535.243 622.089,523.409 636.5,513C 648.333,503.479 656.833,491.645 662,477.5C 665.419,463.242 670.419,449.575 677,436.5C 682.53,430.975 689.03,426.809 696.5,424C 708.5,419.333 720.5,414.667 732.5,410C 742.099,405.729 750.599,399.895 758,392.5C 765.667,381.833 773.333,371.167 781,360.5C 784.534,356.631 788.367,353.131 792.5,350C 808.277,346.288 824.277,344.622 840.5,345C 854.684,344.964 868.018,341.631 880.5,335C 889.447,329.053 898.114,322.72 906.5,316C 911.51,312.493 916.843,309.493 922.5,307C 929.215,306.289 935.882,306.622 942.5,308C 955.53,311.174 968.53,314.508 981.5,318C 994.26,321.506 1006.93,321.173 1019.5,317C 1031.51,312.827 1043.51,308.993 1055.5,305.5 Z"/></g>
<g><path style="opacity:1" fill="#fefefe" d="M 995.5,322.5 C 1001.97,323.201 1008.31,324.701 1014.5,327C 1026.5,332.333 1038.5,337.667 1050.5,343C 1063.73,348.636 1077.4,349.969 1091.5,347C 1104.64,342.882 1117.97,341.882 1131.5,344C 1144,351.823 1155.33,361.156 1165.5,372C 1175.22,381.532 1186.56,388.532 1199.5,393C 1209.76,395.075 1220.09,396.741 1230.5,398C 1237.09,399.23 1243.42,401.23 1249.5,404C 1253.71,408.546 1257.55,413.379 1261,418.5C 1269,433.835 1278,448.502 1288,462.5C 1292.55,466.714 1297.38,470.547 1302.5,474C 1312.96,479.063 1323.29,484.396 1333.5,490C 1337.09,492.713 1340.59,495.547 1344,498.5C 1345.86,502.419 1347.53,506.419 1349,510.5C 1352.54,526.534 1356.21,542.534 1360,558.5C 1362.36,566.226 1366.03,573.226 1371,579.5C 1379.33,587.833 1387.67,596.167 1396,604.5C 1405.23,614.346 1408.23,626.013 1405,639.5C 1401.88,655.704 1400.88,672.037 1402,688.5C 1405.17,703.176 1410.84,716.842 1419,729.5C 1421.97,735.737 1424.13,742.237 1425.5,749C 1424.12,755.277 1422.28,761.444 1420,767.5C 1414.67,779.5 1409.33,791.5 1404,803.5C 1400.27,813.187 1398.94,823.187 1400,833.5C 1402.48,845.562 1404.31,857.729 1405.5,870C 1405.44,874.222 1404.94,878.389 1404,882.5C 1394.84,896.338 1384.17,909.005 1372,920.5C 1365.15,928.196 1359.82,936.862 1356,946.5C 1352.83,959.686 1350.5,973.019 1349,986.5C 1347.73,990.979 1346.06,995.312 1344,999.5C 1339.12,1004.05 1333.96,1008.21 1328.5,1012C 1315.01,1018.91 1302.01,1026.58 1289.5,1035C 1284.63,1039.53 1280.13,1044.37 1276,1049.5C 1269.67,1061.5 1263.33,1073.5 1257,1085.5C 1254.54,1088.96 1251.7,1092.13 1248.5,1095C 1242.61,1097.31 1236.61,1099.31 1230.5,1101C 1216.76,1103.75 1203.1,1106.75 1189.5,1110C 1181.05,1113.05 1173.39,1117.39 1166.5,1123C 1158.17,1131.33 1149.83,1139.67 1141.5,1148C 1138,1150.58 1134.34,1152.92 1130.5,1155C 1121.5,1155.67 1112.5,1155.67 1103.5,1155C 1088.27,1152.45 1072.93,1151.45 1057.5,1152C 1053.83,1153 1050.17,1154 1046.5,1155C 1035.86,1160.32 1025.2,1165.65 1014.5,1171C 1009.28,1173.02 1003.94,1174.52 998.5,1175.5C 992.661,1174.72 986.994,1173.22 981.5,1171C 965.49,1162.66 948.823,1155.99 931.5,1151C 923.833,1150.33 916.167,1150.33 908.5,1151C 894.692,1154.52 880.692,1155.86 866.5,1155C 850.955,1143.79 836.288,1131.46 822.5,1118C 814.66,1112.08 805.993,1107.75 796.5,1105C 785.857,1103.27 775.19,1101.61 764.5,1100C 758.532,1098.85 752.866,1096.85 747.5,1094C 743.638,1089.77 740.138,1085.27 737,1080.5C 729.087,1065.67 720.421,1051.33 711,1037.5C 707.466,1033.63 703.633,1030.13 699.5,1027C 687.5,1020.67 675.5,1014.33 663.5,1008C 660.333,1005.5 657.167,1003 654,1000.5C 650.536,992.773 647.869,984.773 646,976.5C 643.988,965.423 641.654,954.423 639,943.5C 635.818,931.461 629.818,921.128 621,912.5C 609.874,903.711 600.541,893.378 593,881.5C 592.333,872.167 592.333,862.833 593,853.5C 595.612,838.267 596.612,822.933 596,807.5C 594.869,803.106 593.535,798.773 592,794.5C 586.651,783.802 581.318,773.136 576,762.5C 571.402,753.195 571.402,743.861 576,734.5C 581.333,722.5 586.667,710.5 592,698.5C 597.132,685.961 598.799,672.961 597,659.5C 593.759,645.67 592.426,631.67 593,617.5C 595.606,612.565 598.606,607.898 602,603.5C 615.129,590.044 627.129,575.711 638,560.5C 640.066,555.637 641.732,550.637 643,545.5C 644.775,535.181 646.442,524.848 648,514.5C 649.268,509.363 650.934,504.363 653,499.5C 656.912,494.917 661.412,491.083 666.5,488C 680.831,480.17 694.831,471.837 708.5,463C 712,459.5 715.5,456 719,452.5C 726.444,440.614 733.111,428.28 739,415.5C 744.211,405.635 752.377,399.802 763.5,398C 782.327,395.235 800.66,390.568 818.5,384C 823.008,381.247 827.341,378.247 831.5,375C 839.833,366.667 848.167,358.333 856.5,350C 865.54,342.737 875.873,340.404 887.5,343C 905.066,345.904 922.732,346.904 940.5,346C 946.637,344.399 952.637,342.399 958.5,340C 970.42,333.037 982.753,327.204 995.5,322.5 Z"/></g>
<g><path style="opacity:1" fill="#ddad99" d="M 992.5,474.5 C 1000.32,473.764 1007.65,475.264 1014.5,479C 1018.92,486.052 1017.92,492.385 1011.5,498C 1014.53,498.793 1016.7,500.626 1018,503.5C 1018.33,510.833 1018.67,518.167 1019,525.5C 1019.47,526.931 1020.3,528.097 1021.5,529C 1017.53,531.364 1014.03,530.864 1011,527.5C 1010.67,519.833 1010.33,512.167 1010,504.5C 1009.5,503.333 1008.67,502.5 1007.5,502C 1004.85,501.503 1002.19,501.336 999.5,501.5C 999.5,510.833 999.5,520.167 999.5,529.5C 997.167,529.5 994.833,529.5 992.5,529.5C 992.167,513.819 992.501,498.152 993.5,482.5C 995.747,481.626 998.08,481.292 1000.5,481.5C 1000.5,487.167 1000.5,492.833 1000.5,498.5C 1007.33,497.834 1011,494.001 1011.5,487C 1010.01,479.82 1005.51,476.653 998,477.5C 988.404,477.93 983.237,482.93 982.5,492.5C 982.353,495.253 983.02,497.753 984.5,500C 978.802,499.96 976.135,496.96 976.5,491C 976.615,488.268 977.448,485.768 979,483.5C 982.882,479.429 987.382,476.429 992.5,474.5 Z"/></g>
<g><path style="opacity:1" fill="#ddad9a" d="M 846.5,517.5 C 848.91,517.921 850.743,519.254 852,521.5C 861.167,534.5 870.333,547.5 879.5,560.5C 878.141,562.692 876.308,564.359 874,565.5C 868.971,558.098 863.471,551.098 857.5,544.5C 853.25,545.627 849.25,547.293 845.5,549.5C 848.778,559.392 853.611,568.392 860,576.5C 862.167,578 864.333,579.5 866.5,581C 860.294,584.957 855.128,583.791 851,577.5C 846.497,569.826 842.664,561.826 839.5,553.5C 835.659,555.33 833.993,558.33 834.5,562.5C 835.5,562.5 836.5,562.5 837.5,562.5C 837.532,567.213 835.199,568.713 830.5,567C 827.819,562.854 828.319,559.021 832,555.5C 834.409,553.38 836.909,551.38 839.5,549.5C 836.809,540.732 836.975,532.065 840,523.5C 842.063,521.266 844.229,519.266 846.5,517.5 Z"/></g>
<g><path style="opacity:1" fill="#fdfcfb" d="M 842.5,524.5 C 843.496,524.414 844.329,524.748 845,525.5C 848.71,531.087 852.543,536.587 856.5,542C 852.47,543.965 848.47,545.132 844.5,545.5C 841.462,538.715 840.796,531.715 842.5,524.5 Z"/></g>
<g><path style="opacity:1" fill="#dcac99" d="M 1143.5,526.5 C 1152.15,525.411 1159.82,527.578 1166.5,533C 1155.77,546.729 1145.43,560.729 1135.5,575C 1138.23,583.815 1143.56,590.482 1151.5,595C 1146.11,599.945 1141.28,599.445 1137,593.5C 1135.56,585.493 1132.39,578.326 1127.5,572C 1137.25,558.505 1147.25,545.172 1157.5,532C 1146.88,528.731 1140.38,532.564 1138,543.5C 1135,541.154 1134,538.154 1135,534.5C 1137.07,530.923 1139.91,528.256 1143.5,526.5 Z"/></g>
<g><path style="opacity:1" fill="#ddad9a" d="M 1223.5,644.5 C 1231.21,645.878 1235.54,650.545 1236.5,658.5C 1246.51,658.264 1255.34,661.264 1263,667.5C 1264.55,670.312 1265.38,673.312 1265.5,676.5C 1248.65,681.922 1231.98,687.922 1215.5,694.5C 1213.35,692.071 1212.68,689.404 1213.5,686.5C 1221.05,683.428 1228.72,680.761 1236.5,678.5C 1236.67,674.154 1236.5,669.821 1236,665.5C 1226.24,664.647 1216.74,666.147 1207.5,670C 1204.42,671.248 1201.75,673.081 1199.5,675.5C 1197.7,670.931 1198.7,667.097 1202.5,664C 1205.95,662.073 1209.61,660.739 1213.5,660C 1220.2,659.376 1226.86,658.543 1233.5,657.5C 1232.17,654.442 1230.17,652.109 1227.5,650.5C 1222.47,654.675 1220.3,653.342 1221,646.5C 1221.99,645.934 1222.83,645.267 1223.5,644.5 Z"/></g>
<g><path style="opacity:1" fill="#ddad9a" d="M 741.5,649.5 C 745.257,649.071 748.757,649.737 752,651.5C 752.946,653.956 752.446,655.956 750.5,657.5C 746.97,653.877 742.97,653.043 738.5,655C 735.426,662.883 737.759,668.883 745.5,673C 754.51,678.336 764.176,680.67 774.5,680C 782.34,675.849 785.173,669.349 783,660.5C 781.833,658.833 780.667,657.167 779.5,655.5C 780.002,654.479 780.668,654.312 781.5,655C 789.78,663.422 790.614,672.589 784,682.5C 775.581,690.03 766.081,691.53 755.5,687C 747.76,684.716 741.26,680.55 736,674.5C 730.129,664.412 731.962,656.079 741.5,649.5 Z"/></g>
<g><path style="opacity:1" fill="#dfd5df" d="M 1031.5,659.5 C 1030.35,658.15 1029.68,658.316 1029.5,660C 1030.41,662.895 1031.41,665.728 1032.5,668.5C 1031.66,668.842 1031.33,669.508 1031.5,670.5C 1029.74,666.04 1028.24,661.373 1027,656.5C 1025.97,660.573 1025.14,664.573 1024.5,668.5C 1024.77,666.901 1024.43,665.568 1023.5,664.5C 1024.01,662.488 1024.18,660.488 1024,658.5C 1023.39,660.066 1022.56,661.4 1021.5,662.5C 1021.5,661.833 1021.17,661.5 1020.5,661.5C 1022.25,658.32 1024.25,655.32 1026.5,652.5C 1028.57,654.568 1030.24,656.901 1031.5,659.5 Z"/></g>
<g><path style="opacity:1" fill="#c1aec1" d="M 1023.5,664.5 C 1024.43,665.568 1024.77,666.901 1024.5,668.5C 1021.92,698.517 1019.09,728.517 1016,758.5C 1004.89,761.403 993.721,764.237 982.5,767C 974.555,789.507 967.388,812.34 961,835.5C 960.333,833.5 960.333,831.5 961,829.5C 964.88,812.219 968.547,794.886 972,777.5C 972.345,762.476 971.845,747.476 970.5,732.5C 983.505,732.318 996.505,731.985 1009.5,731.5C 1013.84,709.122 1018.51,686.788 1023.5,664.5 Z"/></g>
<g><path style="opacity:1" fill="#fdfbfa" d="M 1238.5,664.5 C 1243.51,664.334 1248.51,664.501 1253.5,665C 1255.66,665.914 1257.66,667.081 1259.5,668.5C 1253.11,671.864 1246.44,674.864 1239.5,677.5C 1238.51,673.217 1238.17,668.884 1238.5,664.5 Z"/></g>
<g><path style="opacity:1" fill="#c0adc0" d="M 1020.5,661.5 C 1021.17,661.5 1021.5,661.833 1021.5,662.5C 1015.96,676.593 1010.12,690.593 1004,704.5C 1003.5,711.492 1003.33,718.492 1003.5,725.5C 984.522,726.899 965.522,727.899 946.5,728.5C 949.669,764.856 952.836,801.189 956,837.5C 944.755,782.279 934.422,726.946 925,671.5C 950.937,676.912 976.937,682.246 1003,687.5C 1003.83,687.167 1004.67,686.833 1005.5,686.5C 1010.76,678.305 1015.76,669.971 1020.5,661.5 Z"/></g>
<g><path style="opacity:1" fill="#c2b0c2" d="M 1031.5,659.5 C 1039.26,669.102 1047.26,678.602 1055.5,688C 1061.17,689.833 1066.83,691.667 1072.5,693.5C 1073.68,699.899 1073.34,706.233 1071.5,712.5C 1065.86,711.78 1060.2,711.447 1054.5,711.5C 1054.67,706.156 1054.5,700.823 1054,695.5C 1046.23,683.612 1038.73,671.612 1031.5,659.5 Z"/></g>
<g><path style="opacity:1" fill="#c1afc1" d="M 1032.5,668.5 C 1038.42,683.766 1044.26,699.099 1050,714.5C 1055.07,715.471 1060.24,715.805 1065.5,715.5C 1065.11,722.459 1064.11,729.293 1062.5,736C 1055.5,736.917 1048.5,737.75 1041.5,738.5C 1042.04,728.832 1042.21,719.166 1042,709.5C 1038.19,696.598 1034.69,683.598 1031.5,670.5C 1031.33,669.508 1031.66,668.842 1032.5,668.5 Z"/></g>
<g><path style="opacity:1" fill="#dcab97" d="M 747.5,734.5 C 758.867,733.599 767.034,738.266 772,748.5C 774.539,767.96 766.039,777.127 746.5,776C 732.96,770.414 728.46,760.581 733,746.5C 736.541,740.78 741.374,736.78 747.5,734.5 Z"/></g>
<g><path style="opacity:1" fill="#dcab97" d="M 1240.5,734.5 C 1257.36,733.867 1265.86,741.867 1266,758.5C 1262.24,771.965 1253.41,777.798 1239.5,776C 1224.74,768.986 1220.91,758.153 1228,743.5C 1231.65,739.609 1235.82,736.609 1240.5,734.5 Z"/></g>
<g><path style="opacity:1" fill="#c1aec1" d="M 1052.5,740.5 C 1055.17,740.5 1057.83,740.5 1060.5,740.5C 1060.06,748.537 1059.22,756.537 1058,764.5C 1048.27,767.632 1038.6,770.966 1029,774.5C 1028.44,764.155 1028.61,753.821 1029.5,743.5C 1037.4,743.222 1045.06,742.222 1052.5,740.5 Z"/></g>
<g><path style="opacity:1" fill="#c1aec1" d="M 1020.5,763.5 C 1021.5,763.5 1022.5,763.5 1023.5,763.5C 1023.42,770.515 1023.09,777.515 1022.5,784.5C 1015.09,786.692 1007.76,789.192 1000.5,792C 988.333,807.5 976.167,823 964,838.5C 972.368,823.415 981.701,808.748 992,794.5C 992.333,786.5 992.667,778.5 993,770.5C 1002.23,768.067 1011.4,765.734 1020.5,763.5 Z"/></g>
<g><path style="opacity:1" fill="#ddad9a" d="M 1204.5,812.5 C 1220.81,818.493 1237.14,824.493 1253.5,830.5C 1254.22,833.242 1253.72,835.909 1252,838.5C 1244.22,835.407 1236.39,832.407 1228.5,829.5C 1223.84,832.665 1221.51,836.832 1221.5,842C 1231.32,849.442 1242.32,854.275 1254.5,856.5C 1251.28,862.268 1246.61,863.768 1240.5,861C 1231.95,857.774 1224.45,852.941 1218,846.5C 1216.43,849.633 1216.1,852.967 1217,856.5C 1222.58,855.843 1223.75,858.01 1220.5,863C 1214.4,863.717 1211.73,860.883 1212.5,854.5C 1212.93,850.75 1213.43,847.084 1214,843.5C 1205.33,836.503 1201.33,827.503 1202,816.5C 1202.66,815.016 1203.5,813.683 1204.5,812.5 Z"/></g>
<g><path style="opacity:1" fill="#ddad99" d="M 773.5,818.5 C 780.877,817.689 787.877,818.856 794.5,822C 800.468,827.815 801.968,834.648 799,842.5C 796.035,846.268 792.369,847.268 788,845.5C 787.51,844.207 787.343,842.873 787.5,841.5C 791.587,841.706 795.087,840.373 798,837.5C 798.959,833.579 797.792,830.412 794.5,828C 779.352,824.245 766.185,827.745 755,838.5C 750.78,850.06 754.613,857.727 766.5,861.5C 759.504,862.924 754.004,860.591 750,854.5C 742.473,842.086 744.973,832.252 757.5,825C 762.744,822.315 768.077,820.148 773.5,818.5 Z"/></g>
<g><path style="opacity:1" fill="#fdfcfb" d="M 1204.5,821.5 C 1211.65,823.496 1218.65,825.996 1225.5,829C 1222.7,832.114 1220.04,835.281 1217.5,838.5C 1210.44,834.794 1206.11,829.127 1204.5,821.5 Z"/></g>
<g><path style="opacity:1" fill="#ddad99" d="M 1126.5,925.5 C 1128.85,927.101 1131.02,929.101 1133,931.5C 1141.28,943.739 1150.28,955.406 1160,966.5C 1166.37,965.294 1172.54,963.461 1178.5,961C 1180.38,959.457 1181.88,957.624 1183,955.5C 1187.26,962.089 1185.76,966.923 1178.5,970C 1172.5,970.333 1166.5,970.667 1160.5,971C 1158.6,972.301 1156.6,972.968 1154.5,973C 1144.45,959.743 1134.29,946.576 1124,933.5C 1118.54,942.957 1120.7,950.29 1130.5,955.5C 1124.15,959.084 1119.65,957.417 1117,950.5C 1115.7,944.078 1116.7,938.078 1120,932.5C 1122.37,930.297 1124.54,927.963 1126.5,925.5 Z"/></g>
<g><path style="opacity:1" fill="#ddad99" d="M 872.5,933.5 C 879.289,932.476 884.622,934.643 888.5,940C 878.764,954.907 868.43,969.407 857.5,983.5C 855.091,982.299 853.091,980.633 851.5,978.5C 856.745,971.676 861.745,964.676 866.5,957.5C 864.212,953.544 861.212,950.211 857.5,947.5C 846.536,954.79 838.536,964.457 833.5,976.5C 830.048,973.641 828.881,969.974 830,965.5C 836.167,956.667 843.667,949.167 852.5,943C 849.562,940.743 846.229,939.576 842.5,939.5C 842.5,941.167 842.5,942.833 842.5,944.5C 836.357,943.974 835.024,941.14 838.5,936C 845.07,934.947 850.737,936.781 855.5,941.5C 860.905,938.044 866.572,935.377 872.5,933.5 Z"/></g>
<g><path style="opacity:1" fill="#fdfaf9" d="M 874.5,936.5 C 876.5,936.5 878.5,936.5 880.5,936.5C 877.365,943.416 873.198,949.749 868,955.5C 865.308,952.308 862.808,948.975 860.5,945.5C 864.855,941.991 869.522,938.991 874.5,936.5 Z"/></g>
<g><path style="opacity:1" fill="#ddad99" d="M 993.5,968.5 C 1000.82,967.859 1007.82,969.025 1014.5,972C 1018.26,975.743 1019.43,980.243 1018,985.5C 1016.74,988.211 1014.91,990.378 1012.5,992C 1015.56,993.061 1018.06,994.894 1020,997.5C 1020.33,1004.83 1020.67,1012.17 1021,1019.5C 1021.47,1020.93 1022.3,1022.1 1023.5,1023C 1015.1,1025.79 1011.1,1022.62 1011.5,1013.5C 1012.17,1008.83 1012.33,1004.17 1012,999.5C 1011.53,998.069 1010.7,996.903 1009.5,996C 1006.85,995.503 1004.19,995.336 1001.5,995.5C 1001.5,1004.83 1001.5,1014.17 1001.5,1023.5C 998.833,1023.5 996.167,1023.5 993.5,1023.5C 993.5,1007.83 993.5,992.167 993.5,976.5C 996.127,975.908 998.794,975.575 1001.5,975.5C 1001.5,981.167 1001.5,986.833 1001.5,992.5C 1010.21,991.277 1013.71,986.277 1012,977.5C 1010.74,974.572 1008.57,972.739 1005.5,972C 988.641,969.692 981.975,976.859 985.5,993.5C 981.845,994.064 979.345,992.397 978,988.5C 977.372,981.92 979.872,976.753 985.5,973C 988.391,971.726 991.058,970.226 993.5,968.5 Z"/></g>
</svg>
